<?xml version="1.0" encoding="UTF-8"?>
<!DOCTYPE svg PUBLIC "-//W3C//DTD SVG 1.1//EN" "http://www.w3.org/Graphics/SVG/1.1/DTD/svg11.dtd">
<!-- Creator: CorelDRAW 2019 (64-Bit) -->
<svg xmlns="http://www.w3.org/2000/svg" xml:space="preserve" width="100.245mm" height="67.7469mm" version="1.1" style="shape-rendering:geometricPrecision; text-rendering:geometricPrecision; image-rendering:optimizeQuality; fill-rule:evenodd; clip-rule:evenodd"
viewBox="0 0 10024.54 6774.74"
 xmlns:xlink="http://www.w3.org/1999/xlink"
 xmlns:xodm="http://www.corel.com/coreldraw/odm/2003">
 <defs>
  <style type="text/css">
   <![CDATA[
    .fil0 {fill:#EF7F1A}
    .fil1 {fill:#E6E6E6}
    .fil3 {fill:#EF7F1A;fill-rule:nonzero}
    .fil2 {fill:#E6E6E6;fill-rule:nonzero}
   ]]>
  </style>
 </defs>
 <g id="Layer_x0020_1">
  <metadata id="CorelCorpID_0Corel-Layer"/>
  <path class="fil0" d="M1778.5 4444.34c366.07,0 662.81,296.75 662.81,662.81 0,366.06 -296.74,662.81 -662.81,662.81 -366.05,0 -662.8,-296.75 -662.8,-662.81 0,-366.06 296.75,-662.81 662.8,-662.81zm42.32 1138.83c1.89,4.11 2.91,8.57 2.91,13.21 0,20.62 -20.24,37.34 -45.23,37.34 -25,0 -45.24,-16.72 -45.24,-37.34 0,-4.64 1.03,-9.1 2.92,-13.21 -6.47,-15.8 -73.7,-167.28 -289.41,-209.31 -158,-30.76 -161.22,-167.51 -76.56,-305.98 21.73,-35.58 45.17,-68.48 70.55,-98.09 -21.61,-80.9 -44.14,-232.58 27.1,-389.19 125.56,59.75 202.22,156.52 245.74,231.44 20.81,-2.91 42.44,-4.44 64.9,-4.4 22.51,-0.04 44.17,1.49 65.02,4.41 43.53,-74.93 120.19,-171.69 245.77,-231.45 71.24,156.67 48.69,308.42 27.05,389.29 15.84,18.48 30.89,38.23 45.26,59.09 8.65,12.58 17.04,25.54 25.18,38.9 74.27,121.45 80.93,241.57 -25.18,290.05 -14.86,6.79 -31.93,12.16 -51.36,15.93 -215.73,42.03 -282.94,193.51 -289.42,209.31z"/>
  <path class="fil1" d="M1604.78 6006.43c0,0 -256.78,-207.16 -683.99,-161.86 0,0 142.38,-6.52 265.39,77.67 0,0 -407.97,-92.77 -869.7,459.57 0,0 519.95,-69.05 696.9,75.52 0,0 -90.61,34.51 -252.44,0 0,0 181.27,248.16 487.66,237.36 0,0 4.31,34.52 -79.85,79.82 612.52,-35.62 1288.91,-525.27 430.18,-907.27 -45.48,-15.38 -92.24,-34.12 -140.35,-56.36 -3.21,-1.17 -6.43,-2.34 -9.67,-3.5 21.02,14.33 94.6,71.05 155.86,199.04z"/>
  <path class="fil2" d="M9544.12 5303.82l0 -190.88 417.73 0 0 -287.15 -417.73 0 0 -187.55 465.03 0 0 -302.96 -814.05 0 0 1272.02 829.44 0 0 -303.47 -480.42 0zm-1205.07 -17.88l-145.65 0 0 -629.51 145.65 0c187.87,0 312.94,125.07 312.94,313.87 0,187.14 -125.07,315.64 -312.94,315.64l0 0zm16.64 -950.67l-514.32 0 0 1271.71 514.32 0c382.9,0 655.6,-265.94 655.6,-636.68 0,-371.47 -271.45,-635.02 -655.6,-635.02l0 0zm-1179.6 790.35l-279.87 0 139.31 -393.81 140.56 393.81zm155.74 481.67l385.61 0 -510.47 -1272.33 -342.25 0 -499.55 1272.33 375.31 0 70.59 -207.2 450.48 0 70.28 207.2zm-1715.53 -961.47l158.96 0c97.62,0 153.97,58.42 153.97,138.69 0,80.05 -56.35,139.41 -153.97,139.41l-158.96 0 0 -278.1zm331.65 961.47l391.42 0 -252.63 -462.22c125.69,-74.86 201.69,-202.42 201.69,-359.62 0,-266.56 -198.68,-450.48 -472.21,-450.48l-550.7 0 0 1272.33 350.78 0 0 -388.93 126.32 0 205.33 388.93z"/>
  <path class="fil2" d="M4390.02 4927.25l0 221.13 315.95 0c-40.02,98.15 -154.49,163.02 -288.39,163.02 -192.65,0 -318.97,-137.86 -318.97,-339.34 0,-203.25 128.4,-341.11 318.97,-341.11 129.64,0 243.48,69.03 289.54,176.32l367.51 0c-53.96,-295.67 -326.86,-504.43 -660.07,-504.43 -392.05,0 -674.63,282.37 -674.63,669.22 0,387.16 287.78,667.35 677.65,667.35 398.28,0 670.05,-295.68 670.05,-712.16l-697.61 0z"/>
  <path class="fil0" d="M1505.21 5831.53c98.74,39.42 313.55,112.49 532.85,104.51 298.73,-10.86 590.91,-297.18 736.86,-618.27 145.95,-321.09 488.83,-1265.73 1524.42,-1141.5 0,0 -483.94,54.41 -729.62,608.26 -246.98,556.76 -621.34,2010.56 -1747.11,1989.98 0,0 173.81,-61.78 260.71,-192.13 0,0 -277.17,186.84 -894.46,190.8 -0.28,0.01 -0.52,-0.01 -0.8,-0.01 607.25,-44.62 1260.59,-527.94 410.87,-905.93 -30.65,-10.37 -61.89,-22.26 -93.73,-35.72z"/>
  <path class="fil0" d="M1047.74 4395.45c0,0 -28.11,371.55 -664.01,307.41 -73.57,358.02 202.19,349.54 480.89,248.13 0,0 28,288.96 -476.5,303.03 0,0 -41.92,385.21 1.53,501.99 0,0 -385.8,106.44 -385.8,-268.86 0,-375.3 -10.94,-836.07 4.12,-936.28 15.06,-100.22 64.85,-197.47 220.55,-266.07 -175.78,256.02 751.54,136.27 819.23,110.64z"/>
  <path class="fil0" d="M3057.25 4617.9l0.23 -0.58c-182.91,-211.58 -373.33,-290.5 -548.21,8.75 128.57,-46.46 247.42,98.41 375.86,294.03 48.57,-112.17 106.56,-212.83 172.12,-302.2z"/>
  <path class="fil0" d="M4433.41 5799.77c-590.17,-5.52 -843.48,-425.1 -938.19,-655.56 -52.72,124.19 -102.1,253.54 -153.57,382.97 456.52,607.08 1091.76,272.59 1091.76,272.59z"/>
  <path class="fil0" d="M1889.46 5230.11l106.29 -69.44c0,0 -106.29,-21.96 -106.29,69.44z"/>
  <path class="fil0" d="M1667.55 5230.11l-106.29 -69.44c0,0 106.29,-21.96 106.29,69.44z"/>
  <path class="fil0" d="M4807.8 0c882.9,0 1598.61,715.71 1598.61,1598.59 0,882.9 -715.71,1598.61 -1598.61,1598.61 -882.88,0 -1598.58,-715.71 -1598.58,-1598.61 0,-882.88 715.7,-1598.59 1598.58,-1598.59zm102.07 2746.68c4.56,9.89 7.02,20.66 7.02,31.85 0,49.74 -48.82,90.06 -109.09,90.06 -60.3,0 -109.11,-40.32 -109.11,-90.06 0,-11.19 2.49,-21.96 7.04,-31.85 -15.61,-38.13 -177.75,-403.46 -698.01,-504.84 -381.07,-74.19 -388.85,-404.01 -184.65,-737.97 52.42,-85.83 108.93,-165.18 170.15,-236.59 -52.12,-195.12 -106.46,-560.95 65.35,-938.67 302.84,144.11 487.72,377.5 592.71,558.2 50.19,-7.03 102.34,-10.71 156.52,-10.61 54.29,-0.1 106.52,3.58 156.82,10.64 104.98,-180.73 289.87,-414.09 592.75,-558.23 171.82,377.87 117.42,743.87 65.25,938.91 38.2,44.58 74.5,92.21 109.16,142.53 20.85,30.32 41.09,61.59 60.72,93.82 179.12,292.91 195.18,582.62 -60.72,699.54 -35.85,16.38 -77.02,29.34 -123.87,38.42 -520.32,101.38 -682.43,466.71 -698.04,504.84z"/>
  <path class="fil0" d="M5075.43 1895.14l256.35 -167.47c0,0 -256.35,-52.97 -256.35,167.47z"/>
  <path class="fil0" d="M4540.2 1895.14l-256.35 -167.47c0,0 256.35,-52.97 256.35,167.47z"/>
  <path class="fil3" d="M6498.85 2874.18l0 100.33 143.33 0c-18.16,44.52 -70.09,73.95 -130.84,73.95 -87.39,0 -144.7,-62.54 -144.7,-153.95 0,-92.21 58.25,-154.75 144.7,-154.75 58.82,0 110.47,31.32 131.36,80l166.73 0c-24.48,-134.14 -148.29,-228.85 -299.45,-228.85 -177.86,0 -306.06,128.1 -306.06,303.6 0,175.65 130.55,302.76 307.42,302.76 180.7,0 303.99,-134.14 303.99,-323.09l-316.48 0z"/>
 </g>
</svg>
