<?xml version="1.0" encoding="UTF-8"?>
<!DOCTYPE svg PUBLIC "-//W3C//DTD SVG 1.1//EN" "http://www.w3.org/Graphics/SVG/1.1/DTD/svg11.dtd">
<!-- Creator: CorelDRAW 2019 (64-Bit) -->
<svg xmlns="http://www.w3.org/2000/svg" xml:space="preserve" width="146.24mm" height="38.0703mm" version="1.1" style="shape-rendering:geometricPrecision; text-rendering:geometricPrecision; image-rendering:optimizeQuality; fill-rule:evenodd; clip-rule:evenodd"
viewBox="0 0 14609.75 3803.32"
 xmlns:xlink="http://www.w3.org/1999/xlink"
 xmlns:xodm="http://www.corel.com/coreldraw/odm/2003">
 <defs>
  <style type="text/css">
   <![CDATA[
    .fil0 {fill:#EF7F1A}
    .fil1 {fill:#E6E6E6}
    .fil2 {fill:#E6E6E6;fill-rule:nonzero}
   ]]>
  </style>
 </defs>
 <g id="Layer_x0020_1">
  <metadata id="CorelCorpID_0Corel-Layer"/>
  <g id="_2602167778464">
   <path class="fil0" d="M2591.99 407c533.51,0 965.99,432.48 965.99,965.98 0,533.5 -432.48,965.99 -965.99,965.99 -533.49,0 -965.97,-432.49 -965.97,-965.99 0,-533.5 432.48,-965.98 965.97,-965.98zm61.68 1659.73c2.75,5.97 4.24,12.48 4.24,19.24 0,30.06 -29.49,54.43 -65.92,54.43 -36.43,0 -65.94,-24.37 -65.94,-54.43 0,-6.76 1.51,-13.27 4.26,-19.24 -9.43,-23.05 -107.41,-243.8 -421.79,-305.06 -230.27,-44.84 -234.97,-244.13 -111.57,-445.92 31.67,-51.87 65.82,-99.81 102.81,-142.97 -31.49,-117.9 -64.33,-338.97 39.49,-567.21 183,87.09 294.72,228.12 358.16,337.31 30.32,-4.26 61.84,-6.47 94.58,-6.41 32.81,-0.06 64.37,2.16 94.76,6.42 63.44,-109.2 175.16,-250.22 358.19,-337.32 103.82,228.34 70.95,449.49 39.42,567.36 23.09,26.93 45.03,55.72 65.97,86.13 12.6,18.32 24.84,37.21 36.69,56.69 108.23,177 117.94,352.06 -36.69,422.71 -21.66,9.9 -46.53,17.73 -74.85,23.22 -314.41,61.26 -412.38,282.01 -421.81,305.06z"/>
   <path class="fil1" d="M2338.81 2683.59c0,0 -374.23,-301.93 -996.86,-235.89 0,0 207.51,-9.51 386.78,113.19 0,0 -594.58,-135.21 -1267.49,669.78 0,0 757.78,-100.63 1015.68,110.06 0,0 -132.06,50.29 -367.91,0 0,0 264.18,361.68 710.72,345.94 0,0 6.27,50.29 -116.38,116.33 892.7,-51.91 1878.46,-765.53 626.95,-1322.26 -66.29,-22.4 -134.43,-49.72 -204.55,-82.14 -4.68,-1.7 -9.37,-3.4 -14.1,-5.1 30.64,20.88 137.88,103.55 227.16,290.09z"/>
   <path class="fil2" d="M13909.59 1659.6l0 -278.19 608.8 0 0 -418.5 -608.8 0 0 -273.34 677.74 0 0 -441.52 -1186.39 0 0 1853.83 1208.82 0 0 -442.28 -700.17 0zm-1756.27 -26.06l-212.27 0 0 -917.44 212.27 0c273.8,0 456.07,182.27 456.07,457.43 0,272.73 -182.27,460.01 -456.07,460.01l0 0zm24.25 -1385.49l-749.57 0 0 1853.38 749.57 0c558.05,0 955.48,-387.59 955.48,-927.9 0,-541.38 -395.61,-925.48 -955.48,-925.48l0 0zm-1719.13 1151.85l-407.89 0 203.03 -573.96 204.86 573.96zm226.97 701.99l561.99 0 -743.96 -1854.29 -498.8 0 -728.05 1854.29 546.99 0 102.88 -301.98 656.54 0 102.42 301.98zm-2500.21 -1401.24l231.66 0c142.28,0 224.4,85.15 224.4,202.12 0,116.67 -82.12,203.18 -224.4,203.18l-231.66 0 0 -405.3zm483.34 1401.24l570.47 0 -368.19 -673.65c183.18,-109.09 293.94,-295.01 293.94,-524.11 0,-388.49 -289.55,-656.53 -688.2,-656.53l-802.6 0 0 1854.29 511.23 0 0 -566.83 184.09 0 299.25 566.83z"/>
   <path class="fil2" d="M6398.02 1110.8l0 322.28 460.47 0c-58.33,143.04 -225.16,237.59 -420.32,237.59 -280.77,0 -464.86,-200.91 -464.86,-494.56 0,-296.22 187.13,-497.13 464.86,-497.13 188.95,0 354.86,100.6 421.99,256.97l535.62 0c-78.64,-430.92 -476.38,-735.16 -961.99,-735.16 -571.38,0 -983.21,411.52 -983.21,975.33 0,564.25 419.4,972.6 987.6,972.6 580.47,0 976.55,-430.92 976.55,-1037.91l-1016.7 0z"/>
   <path class="fil0" d="M2193.7 2428.69c143.89,57.44 456.97,163.94 776.58,152.31 435.37,-15.82 861.19,-433.12 1073.89,-901.07 212.7,-467.96 712.41,-1844.68 2221.68,-1663.63 0,0 -705.29,79.3 -1063.34,886.48 -359.94,811.44 -905.54,2930.2 -2546.24,2900.21 0,0 253.3,-90.04 379.96,-280.02 0,0 -403.95,272.3 -1303.58,278.08 -0.41,0 -0.76,-0.02 -1.16,-0.02 885.01,-65.03 1837.17,-769.42 598.8,-1320.3 -44.68,-15.11 -90.19,-32.43 -136.6,-52.05z"/>
   <path class="fil0" d="M1526.97 335.74c0,0 -40.97,541.5 -967.74,448.03 -107.23,521.77 294.68,509.42 700.86,361.63 0,0 40.81,421.13 -694.45,441.63 0,0 -61.1,561.41 2.23,731.6 0,0 -562.27,155.14 -562.27,-391.83 0,-546.97 -15.93,-1218.48 6.01,-1364.54 21.95,-146.05 94.51,-287.79 321.43,-387.76 -256.19,373.12 1095.28,198.6 1193.93,161.24z"/>
   <path class="fil0" d="M4455.63 659.95l0.34 -0.85c-266.57,-308.36 -544.1,-423.38 -798.96,12.75 187.38,-67.7 360.59,143.43 547.78,428.53 70.78,-163.48 155.3,-310.18 250.85,-440.43z"/>
   <path class="fil0" d="M6461.26 2382.41c-860.13,-8.05 -1229.29,-619.56 -1367.32,-955.43 -76.84,181 -148.79,369.52 -223.82,558.16 665.34,884.75 1591.14,397.27 1591.14,397.27z"/>
   <path class="fil0" d="M2753.71 1552.18l154.9 -101.2c0,0 -154.9,-32.01 -154.9,101.2z"/>
   <path class="fil0" d="M2430.29 1552.18l-154.91 -101.2c0,0 154.91,-32.01 154.91,101.2z"/>
  </g>
 </g>
</svg>
