<?xml version="1.0" encoding="UTF-8"?>
<!DOCTYPE svg PUBLIC "-//W3C//DTD SVG 1.1//EN" "http://www.w3.org/Graphics/SVG/1.1/DTD/svg11.dtd">
<!-- Creator: CorelDRAW 2019 (64-Bit) -->
<svg xmlns="http://www.w3.org/2000/svg" xml:space="preserve" width="12.4874mm" height="3.2508mm" version="1.1" style="shape-rendering:geometricPrecision; text-rendering:geometricPrecision; image-rendering:optimizeQuality; fill-rule:evenodd; clip-rule:evenodd"
viewBox="0 0 1234.64 321.41"
 xmlns:xlink="http://www.w3.org/1999/xlink"
 xmlns:xodm="http://www.corel.com/coreldraw/odm/2003">
 <defs>
  <style type="text/css">
   <![CDATA[
    .fil0 {fill:#EF7F1A}
    .fil1 {fill:#333333}
    .fil2 {fill:#333333;fill-rule:nonzero}
   ]]>
  </style>
 </defs>
 <g id="Layer_x0020_1">
  <metadata id="CorelCorpID_0Corel-Layer"/>
  <g id="_1686323564896">
   <path class="fil0" d="M219.05 34.4c45.09,0 81.64,36.55 81.64,81.63 0,45.09 -36.55,81.64 -81.64,81.64 -45.09,0 -81.63,-36.55 -81.63,-81.64 0,-45.08 36.54,-81.63 81.63,-81.63zm5.21 140.26c0.24,0.5 0.37,1.06 0.37,1.63 0,2.54 -2.49,4.6 -5.58,4.6 -3.07,0 -5.57,-2.06 -5.57,-4.6 0,-0.57 0.13,-1.13 0.36,-1.63 -0.8,-1.95 -9.08,-20.6 -35.64,-25.78 -19.46,-3.79 -19.85,-20.63 -9.43,-37.69 2.68,-4.38 5.57,-8.43 8.69,-12.08 -2.66,-9.96 -5.44,-28.64 3.34,-47.93 15.46,7.37 24.91,19.28 30.26,28.5 2.56,-0.36 5.22,-0.54 7.99,-0.54 2.78,0 5.44,0.19 8.01,0.54 5.36,-9.22 14.8,-21.14 30.27,-28.5 8.77,19.3 5.99,37.99 3.33,47.95 1.95,2.27 3.8,4.71 5.57,7.28 1.07,1.54 2.11,3.14 3.1,4.79 9.15,14.96 9.97,29.75 -3.1,35.72 -1.83,0.84 -3.93,1.5 -6.32,1.97 -26.58,5.17 -34.85,23.83 -35.65,25.78z"/>
   <path class="fil1" d="M197.65 226.79c0,0 -31.62,-25.52 -84.24,-19.94 0,0 17.53,-0.8 32.69,9.57 0,0 -50.25,-11.43 -107.12,56.6 0,0 64.04,-8.51 85.83,9.29 0,0 -11.15,4.25 -31.09,0 0,0 22.33,30.57 60.05,29.24 0,0 0.53,4.25 -9.83,9.83 75.44,-4.38 158.74,-64.69 52.98,-111.73 -5.61,-1.9 -11.37,-4.2 -17.29,-6.94 -0.4,-0.15 -0.79,-0.29 -1.19,-0.44 2.59,1.77 11.65,8.75 19.19,24.52z"/>
   <path class="fil2" d="M1175.47 140.25l0 -23.5 51.45 0 0 -35.37 -51.45 0 0 -23.11 57.28 0 0 -37.31 -100.26 0 0 156.67 102.15 0 0 -37.38 -59.17 0zm-148.42 -2.19l-17.94 0 0 -77.53 17.94 0c23.14,0 38.54,15.4 38.54,38.66 0,23.05 -15.4,38.88 -38.54,38.88l0 0zm2.06 -117.09l-63.35 0 0 156.63 63.35 0c47.15,0 80.74,-32.76 80.74,-78.41 0,-45.76 -33.43,-78.22 -80.74,-78.22l0 0zm-145.28 97.35l-34.48 0 17.16 -48.51 17.31 48.51zm19.18 59.32l47.49 0 -62.87 -156.71 -42.15 0 -61.53 156.71 46.22 0 8.7 -25.52 55.48 0 8.66 25.52zm-211.29 -118.42l19.58 0c12.02,0 18.96,7.2 18.96,17.08 0,9.87 -6.94,17.17 -18.96,17.17l-19.58 0 0 -34.25zm40.84 118.42l48.21 0 -31.11 -56.93c15.48,-9.22 24.84,-24.94 24.84,-44.29 0,-32.84 -24.47,-55.49 -58.16,-55.49l-67.83 0 0 156.71 43.21 0 0 -47.9 15.55 0 25.29 47.9z"/>
   <path class="fil2" d="M540.69 93.88l0 27.23 38.92 0c-4.93,12.09 -19.02,20.08 -35.52,20.08 -23.72,0 -39.28,-16.98 -39.28,-41.79 0,-25.03 15.82,-42.01 39.28,-42.01 15.97,0 30,8.49 35.66,21.71l45.26 0c-6.64,-36.41 -40.25,-62.13 -81.29,-62.13 -48.29,0 -83.09,34.78 -83.09,82.43 0,47.69 35.45,82.19 83.46,82.19 49.06,0 82.53,-36.41 82.53,-87.71l-85.92 0z"/>
   <path class="fil0" d="M185.39 205.25c12.16,4.85 38.62,13.85 65.63,12.87 36.79,-1.34 72.77,-36.6 90.74,-76.15 17.97,-39.55 60.21,-155.89 187.76,-140.58 0,0 -59.61,6.69 -89.86,74.91 -30.42,68.57 -76.53,247.62 -215.17,245.08 0,0 21.41,-7.6 32.1,-23.66 0,0 -34.13,23.02 -110.16,23.5 -0.03,0 -0.06,0 -0.1,0 74.8,-5.5 155.26,-65.03 50.61,-111.58 -3.78,-1.28 -7.62,-2.74 -11.55,-4.4z"/>
   <path class="fil0" d="M129.05 28.38c0,0 -3.46,45.76 -81.78,37.86 -9.07,44.1 24.9,43.06 59.22,30.56 0,0 3.45,35.59 -58.69,37.32 0,0 -5.16,47.45 0.2,61.82 0,0 -47.52,13.11 -47.52,-33.11 0,-46.22 -1.35,-102.97 0.5,-115.31 1.86,-12.34 7.99,-24.32 27.16,-32.77 -21.64,31.53 92.56,16.78 100.9,13.62z"/>
   <path class="fil0" d="M376.54 55.77l0.03 -0.07c-22.52,-26.06 -45.97,-35.78 -67.52,1.08 15.84,-5.72 30.47,12.12 46.29,36.21 5.98,-13.81 13.13,-26.21 21.2,-37.22z"/>
   <path class="fil0" d="M546.03 201.33c-72.69,-0.68 -103.88,-52.35 -115.55,-80.74 -6.5,15.3 -12.58,31.22 -18.91,47.17 56.23,74.77 134.46,33.57 134.46,33.57z"/>
   <path class="fil0" d="M232.71 131.17l13.1 -8.55c0,0 -13.1,-2.7 -13.1,8.55z"/>
   <path class="fil0" d="M205.38 131.17l-13.09 -8.55c0,0 13.09,-2.7 13.09,8.55z"/>
  </g>
 </g>
</svg>
