<?xml version="1.0" encoding="UTF-8"?>
<!DOCTYPE svg PUBLIC "-//W3C//DTD SVG 1.1//EN" "http://www.w3.org/Graphics/SVG/1.1/DTD/svg11.dtd">
<!-- Creator: CorelDRAW 2019 (64-Bit) -->
<svg xmlns="http://www.w3.org/2000/svg" xml:space="preserve" width="52.6066mm" height="46.6424mm" version="1.1" style="shape-rendering:geometricPrecision; text-rendering:geometricPrecision; image-rendering:optimizeQuality; fill-rule:evenodd; clip-rule:evenodd"
viewBox="0 0 3905.04 3462.31"
 xmlns:xlink="http://www.w3.org/1999/xlink"
 xmlns:xodm="http://www.corel.com/coreldraw/odm/2003">
 <defs>
  <style type="text/css">
   <![CDATA[
    .fil0 {fill:#EF7F1A}
    .fil1 {fill:#EF7F1A;fill-rule:nonzero}
   ]]>
  </style>
 </defs>
 <g id="Layer_x0020_1">
  <metadata id="CorelCorpID_0Corel-Layer"/>
  <g id="_2566297702560">
   <path class="fil0" d="M1731.1 0c956.09,0 1731.13,775.05 1731.13,1731.1 0,956.09 -775.04,1731.13 -1731.13,1731.13 -956.07,0 -1731.1,-775.05 -1731.1,-1731.13 0,-956.06 775.04,-1731.1 1731.1,-1731.1zm110.54 2974.37c4.92,10.71 7.59,22.37 7.59,34.5 0,53.86 -52.86,97.52 -118.12,97.52 -65.3,0 -118.16,-43.66 -118.16,-97.52 0,-12.12 2.69,-23.78 7.62,-34.5 -16.9,-41.29 -192.48,-436.9 -755.87,-546.7 -412.66,-80.34 -421.09,-437.5 -199.96,-799.14 56.76,-92.94 117.95,-178.87 184.25,-256.19 -56.44,-211.31 -115.29,-607.46 70.77,-1016.49 327.94,156.06 528.15,408.8 641.85,604.49 54.35,-7.62 110.82,-11.6 169.5,-11.49 58.79,-0.11 115.35,3.87 169.81,11.52 113.69,-195.72 313.91,-448.42 641.9,-604.51 186.06,409.2 127.15,805.53 70.65,1016.75 41.37,48.27 80.68,99.85 118.21,154.34 22.58,32.83 44.49,66.7 65.75,101.59 193.97,317.2 211.36,630.93 -65.75,757.54 -38.82,17.73 -83.41,31.77 -134.14,41.6 -563.46,109.8 -739,505.41 -755.9,546.7z"/>
   <path class="fil0" d="M2020.91 2052.24l277.61 -181.35c0,0 -277.61,-57.36 -277.61,181.35z"/>
   <path class="fil0" d="M1441.32 2052.24l-277.61 -181.35c0,0 277.61,-57.36 277.61,181.35z"/>
   <path class="fil1" d="M3562.32 3112.45l0 108.64 155.22 0c-19.66,48.21 -75.9,80.09 -141.68,80.09 -94.64,0 -156.7,-67.73 -156.7,-166.72 0,-99.85 63.08,-167.58 156.7,-167.58 63.69,0 119.62,33.92 142.25,86.63l180.55 0c-26.51,-145.26 -160.58,-247.82 -324.29,-247.82 -192.6,0 -331.43,138.72 -331.43,328.77 0,190.21 141.38,327.86 332.91,327.86 195.67,0 329.18,-145.26 329.18,-349.87l-342.72 0z"/>
  </g>
 </g>
</svg>
